<?xml version="1.0" encoding="UTF-8" standalone="no"?>
<!-- Generator: Adobe Illustrator 19.1.0, SVG Export Plug-In . SVG Version: 6.00 Build 0)  -->

<svg
   version="1.1"
   id="Layer_1"
   x="0px"
   y="0px"
   viewBox="0 0 64 64"
   style="enable-background:new 0 0 64 64"
   xml:space="preserve"
   sodipodi:docname="arrow.svg"
   inkscape:version="1.2.2 (732a01da63, 2022-12-09)"
   xmlns:inkscape="http://www.inkscape.org/namespaces/inkscape"
   xmlns:sodipodi="http://sodipodi.sourceforge.net/DTD/sodipodi-0.dtd"
   xmlns="http://www.w3.org/2000/svg"
   xmlns:svg="http://www.w3.org/2000/svg"><defs
   id="defs38" /><sodipodi:namedview
   id="namedview36"
   pagecolor="#ffffff"
   bordercolor="#000000"
   borderopacity="0.25"
   inkscape:showpageshadow="2"
   inkscape:pageopacity="0.0"
   inkscape:pagecheckerboard="0"
   inkscape:deskcolor="#d1d1d1"
   showgrid="false"
   inkscape:zoom="3.9548441"
   inkscape:cx="32.112518"
   inkscape:cy="32.112518"
   inkscape:window-width="1440"
   inkscape:window-height="837"
   inkscape:window-x="-8"
   inkscape:window-y="-8"
   inkscape:window-maximized="1"
   inkscape:current-layer="Layer_1" />
<style
   type="text/css"
   id="style21">
	.st0{display:none;fill:#2B3544;}
	.st1{fill:#C75C5C;}
	.st2{opacity:0.2;}
	.st3{fill:#231F20;}
	.st4{fill:#FFFFFF;stroke:#FFFFFF;stroke-width:3;stroke-linecap:round;stroke-linejoin:round;stroke-miterlimit:10;}
</style>
<rect
   x="-307"
   y="-1765"
   class="st0"
   width="608"
   height="1984"
   id="rect23"
   style="fill-opacity:1.0;fill:#2b3544" />
<circle
   class="st1"
   cx="32"
   cy="32"
   r="32"
   id="circle25"
   style="fill-opacity:1.0;fill:#6e707a" />
<g
   class="st2"
   id="g31">
	<polygon
   class="st3"
   points="32,16.8 17.6,49.2 32,42 46.4,49.2  "
   id="polygon27"
   style="fill-opacity:1.0;fill:#231f20" />
	<path
   class="st3"
   d="M46.4,50.5c-0.2,0-0.4,0-0.6-0.1L32,43.5l-13.8,6.9c-0.5,0.3-1.1,0.2-1.5-0.2c-0.4-0.4-0.5-1-0.3-1.5   l14.4-32.3c0.2-0.5,0.7-0.8,1.2-0.8c0.5,0,1,0.3,1.2,0.8l14.4,32.3c0.2,0.5,0.1,1.1-0.3,1.5C47,50.4,46.7,50.5,46.4,50.5z M32,40.6   c0.2,0,0.4,0,0.6,0.1l11,5.5L32,20.2L20.4,46.3l11-5.5C31.6,40.7,31.8,40.6,32,40.6z"
   id="path29"
   style="fill-opacity:1.0;fill:#231f20" />
</g>
<polygon
   class="st4"
   points="32,15 17.9,46.7 32,39.6 46.1,46.7 "
   id="polygon33"
   style="fill-opacity:1.0;fill:#ffffff;stroke-opacity:1.0;stroke:#ffffff" />
</svg>
